<svg id="visual" viewBox="0 0 900 600" width="900" height="600" xmlns="http://www.w3.org/2000/svg" xmlns:xlink="http://www.w3.org/1999/xlink" version="1.1"><rect x="0" y="0" width="900" height="600" fill="#001220"></rect><path d="M0 424L21.5 412.8C43 401.7 86 379.3 128.8 380.2C171.7 381 214.3 405 257.2 404C300 403 343 377 385.8 376C428.7 375 471.3 399 514.2 408.8C557 418.7 600 414.3 642.8 404.8C685.7 395.3 728.3 380.7 771.2 383.5C814 386.3 857 406.7 878.5 416.8L900 427L900 601L878.5 601C857 601 814 601 771.2 601C728.3 601 685.7 601 642.8 601C600 601 557 601 514.2 601C471.3 601 428.7 601 385.8 601C343 601 300 601 257.2 601C214.3 601 171.7 601 128.8 601C86 601 43 601 21.5 601L0 601Z" fill="#0066ff"></path><path d="M0 458L21.5 461.7C43 465.3 86 472.7 128.8 475.2C171.7 477.7 214.3 475.3 257.2 469.2C300 463 343 453 385.8 450.8C428.7 448.7 471.3 454.3 514.2 447.8C557 441.3 600 422.7 642.8 422.3C685.7 422 728.3 440 771.2 451.5C814 463 857 468 878.5 470.5L900 473L900 601L878.5 601C857 601 814 601 771.2 601C728.3 601 685.7 601 642.8 601C600 601 557 601 514.2 601C471.3 601 428.7 601 385.8 601C343 601 300 601 257.2 601C214.3 601 171.7 601 128.8 601C86 601 43 601 21.5 601L0 601Z" fill="#007aff"></path><path d="M0 497L21.5 495.7C43 494.3 86 491.7 128.8 492C171.7 492.3 214.3 495.7 257.2 498C300 500.3 343 501.7 385.8 498.8C428.7 496 471.3 489 514.2 480.8C557 472.7 600 463.3 642.8 459.2C685.7 455 728.3 456 771.2 465.3C814 474.7 857 492.3 878.5 501.2L900 510L900 601L878.5 601C857 601 814 601 771.2 601C728.3 601 685.7 601 642.8 601C600 601 557 601 514.2 601C471.3 601 428.7 601 385.8 601C343 601 300 601 257.2 601C214.3 601 171.7 601 128.8 601C86 601 43 601 21.5 601L0 601Z" fill="#008cff"></path><path d="M0 535L21.5 533.5C43 532 86 529 128.8 523.8C171.7 518.7 214.3 511.3 257.2 505C300 498.7 343 493.3 385.8 491.5C428.7 489.7 471.3 491.3 514.2 498C557 504.7 600 516.3 642.8 520.5C685.7 524.7 728.3 521.3 771.2 519.7C814 518 857 518 878.5 518L900 518L900 601L878.5 601C857 601 814 601 771.2 601C728.3 601 685.7 601 642.8 601C600 601 557 601 514.2 601C471.3 601 428.7 601 385.8 601C343 601 300 601 257.2 601C214.3 601 171.7 601 128.8 601C86 601 43 601 21.5 601L0 601Z" fill="#2b9dfc"></path><path d="M0 538L21.5 538.7C43 539.3 86 540.7 128.8 545C171.7 549.3 214.3 556.7 257.2 555.7C300 554.7 343 545.3 385.8 545.5C428.7 545.7 471.3 555.3 514.2 561.5C557 567.7 600 570.3 642.8 563.8C685.7 557.3 728.3 541.7 771.2 535.7C814 529.7 857 533.3 878.5 535.2L900 537L900 601L878.5 601C857 601 814 601 771.2 601C728.3 601 685.7 601 642.8 601C600 601 557 601 514.2 601C471.3 601 428.7 601 385.8 601C343 601 300 601 257.2 601C214.3 601 171.7 601 128.8 601C86 601 43 601 21.5 601L0 601Z" fill="#4facf7"></path></svg>