<?xml version="1.0" encoding="utf-8"?>
<!-- Generator: Adobe Illustrator 27.5.0, SVG Export Plug-In . SVG Version: 6.00 Build 0)  -->
<svg version="1.1" xmlns="http://www.w3.org/2000/svg" xmlns:xlink="http://www.w3.org/1999/xlink" x="0px" y="0px"
	 viewBox="0 0 500 500" style="enable-background:new 0 0 500 500;" xml:space="preserve">
<g id="BACKGROUND">
	<rect x="0" y="-0.051" style="fill:#111111;" width="500.003" height="500.027"/>
</g>
<g id="OBJECTS">
	<g>
		<defs>
			<rect id="SVGID_1_" x="0" y="-0.051" width="500.105" height="500.105"/>
		</defs>
		<clipPath id="SVGID_00000101088840126925492330000011987955188678320773_">
			<use xlink:href="#SVGID_1_"  style="overflow:visible;"/>
		</clipPath>
		<g style="clip-path:url(#SVGID_00000101088840126925492330000011987955188678320773_);">
			<polygon style="fill:none;stroke:#FFFFFF;stroke-linejoin:round;stroke-miterlimit:10;" points="451.964,480.801 
				455.672,512.846 498.103,506.615 498.103,477.834 			"/>
			<polygon style="fill:none;stroke:#FFFFFF;stroke-linejoin:round;stroke-miterlimit:10;" points="447.513,445.937 
				449.887,476.944 500.773,472.493 500.773,441.635 			"/>
			<polygon style="fill:none;stroke:#FFFFFF;stroke-linejoin:round;stroke-miterlimit:10;" points="415.023,454.987 
				443.507,448.904 449.59,514.775 424.517,514.775 			"/>
			<polygon style="fill:none;stroke:#FFFFFF;stroke-linejoin:round;stroke-miterlimit:10;" points="356.125,465.965 
				360.427,489.999 413.094,474.719 407.308,461.96 401.67,455.58 			"/>
			<polygon style="fill:none;stroke:#FFFFFF;stroke-linejoin:round;stroke-miterlimit:10;" points="360.724,493.263 415.023,481.84 
				420.363,518.336 364.284,524.418 			"/>
			<path style="fill:none;stroke:#FFFFFF;stroke-linejoin:round;stroke-miterlimit:10;" d="M337.63,513.489l18.495-4.154
				l4.055,15.083c0,0-11.444,2.644-16.418-1.335C338.816,519.127,337.63,513.489,337.63,513.489z"/>
			<polygon style="fill:none;stroke:#FFFFFF;stroke-linejoin:round;stroke-miterlimit:10;" points="319.134,512.5 339.904,530.402 
				294.309,530.402 			"/>
			<path style="fill:none;stroke:#FFFFFF;stroke-linejoin:round;stroke-miterlimit:10;" d="M355.136,495.686l-29.671,7.022
				c0,0,2.275,4.846,6.231,6.132c5.941,1.931,24.429-5.242,24.429-5.242L355.136,495.686z"/>
			<path style="fill:none;stroke:#FFFFFF;stroke-linejoin:round;stroke-miterlimit:10;" d="M298.661,469.971l25.221,27.594
				l30.759-6.923l-3.659-20.671c0,0-17.538,2.753-23.44,2.819C320.287,472.871,298.661,469.971,298.661,469.971z"/>
			<polygon style="fill:none;stroke:#FFFFFF;stroke-linejoin:round;stroke-miterlimit:10;" points="305.486,485.895 
				295.298,498.752 319.728,498.752 			"/>
			<polygon style="fill:none;stroke:#FFFFFF;stroke-linejoin:round;stroke-miterlimit:10;" points="287.287,467.795 
				256.528,495.686 290.551,498.752 303.495,483.274 			"/>
			<polygon style="fill:none;stroke:#FFFFFF;stroke-linejoin:round;stroke-miterlimit:10;" points="259.099,504.291 
				310.629,507.159 275.715,533.765 			"/>
			<polygon style="fill:none;stroke:#FFFFFF;stroke-linejoin:round;stroke-miterlimit:10;" points="260.978,521.995 
				269.979,540.193 228.933,542.468 			"/>
			<polygon style="fill:none;stroke:#FFFFFF;stroke-linejoin:round;stroke-miterlimit:10;" points="204.009,507.06 254.055,505.874 
				260.385,517.544 217.955,539.007 			"/>
			<polygon style="fill:none;stroke:#FFFFFF;stroke-linejoin:round;stroke-miterlimit:10;" points="184.723,503.203 
				199.361,503.203 198.965,521.451 			"/>
			<polygon style="fill:none;stroke:#FFFFFF;stroke-linejoin:round;stroke-miterlimit:10;" points="156.436,503.203 
				172.755,501.423 195.009,525.16 175.327,533.765 156.436,528.721 			"/>
			<polygon style="fill:none;stroke:#FFFFFF;stroke-linejoin:round;stroke-miterlimit:10;" points="126.468,501.423 
				146.941,500.928 146.941,524.369 129.336,524.369 			"/>
			<polygon style="fill:none;stroke:#FFFFFF;stroke-linejoin:round;stroke-miterlimit:10;" points="88.983,501.423 118.061,502.115 
				122.611,524.369 88.983,524.369 			"/>
			<polygon style="fill:none;stroke:#FFFFFF;stroke-linejoin:round;stroke-miterlimit:10;" points="47.245,498.653 85.126,500.928 
				85.126,525.654 47.245,525.654 			"/>
			<polygon style="fill:none;stroke:#FFFFFF;stroke-linejoin:round;stroke-miterlimit:10;" points="42.102,498.653 5.507,498.653 
				5.507,524.369 39.827,524.369 			"/>
			<polygon style="fill:none;stroke:#FFFFFF;stroke-linejoin:round;stroke-miterlimit:10;" points="-14.372,499.445 1.848,501.027 
				-1.317,524.369 -14.372,524.369 			"/>
			
				<rect x="89.873" y="490.148" style="fill:none;stroke:#FFFFFF;stroke-linejoin:round;stroke-miterlimit:10;" width="18.792" height="5.934"/>
			
				<rect x="111.237" y="483.125" style="fill:none;stroke:#FFFFFF;stroke-linejoin:round;stroke-miterlimit:10;" width="7.22" height="12.957"/>
			<polygon style="fill:none;stroke:#FFFFFF;stroke-linejoin:round;stroke-miterlimit:10;" points="108.665,481.048 
				108.665,486.686 89.873,486.686 86.906,460.081 			"/>
			<polygon style="fill:none;stroke:#FFFFFF;stroke-linejoin:round;stroke-miterlimit:10;" points="89.873,456.124 111.237,480.455 
				116.083,480.455 113.116,455.729 			"/>
			<polygon style="fill:none;stroke:#FFFFFF;stroke-linejoin:round;stroke-miterlimit:10;" points="112.127,434.365 
				112.127,452.267 87.697,453.454 86.412,435.651 			"/>
			<polygon style="fill:none;stroke:#FFFFFF;stroke-linejoin:round;stroke-miterlimit:10;" points="109.354,418.008 
				111.632,429.222 88.983,429.222 85.422,418.738 			"/>
			<polygon style="fill:none;stroke:#FFFFFF;stroke-linejoin:round;stroke-miterlimit:10;" points="79.983,420.321 59.114,423.09 
				62.872,453.454 81.763,453.454 			"/>
			<polygon style="fill:none;stroke:#FFFFFF;stroke-linejoin:round;stroke-miterlimit:10;" points="63.169,456.916 64.059,471.455 
				81.763,469.575 81.763,456.916 			"/>
			<polygon style="fill:none;stroke:#FFFFFF;stroke-linejoin:round;stroke-miterlimit:10;" points="64.356,474.422 65.345,485.005 
				82.554,485.796 82.554,472.444 			"/>
			<polygon style="fill:none;stroke:#FFFFFF;stroke-linejoin:round;stroke-miterlimit:10;" points="33.695,448.805 57.828,448.805 
				61.586,483.125 33.102,483.125 			"/>
			<polygon style="fill:none;stroke:#FFFFFF;stroke-linejoin:round;stroke-miterlimit:10;" points="10.552,450.882 30.333,449.696 
				30.333,481.444 10.552,483.125 			"/>
			<polygon style="fill:none;stroke:#FFFFFF;stroke-linejoin:round;stroke-miterlimit:10;" points="-5.174,453.454 4.42,453.949 
				4.42,483.125 -4.779,483.125 			"/>
			<polygon style="fill:none;stroke:#FFFFFF;stroke-linejoin:round;stroke-miterlimit:10;" points="7.09,424.871 -6.262,424.871 
				-6.955,449.696 7.09,449.696 			"/>
			<polygon style="fill:none;stroke:#FFFFFF;stroke-linejoin:round;stroke-miterlimit:10;" points="10.552,427.046 10.552,448.311 
				31.025,446.333 28.651,427.046 			"/>
			<polygon style="fill:none;stroke:#FFFFFF;stroke-linejoin:round;stroke-miterlimit:10;" points="35.476,427.046 56.147,423.615 
				57.432,445.542 35.476,445.937 			"/>
			<polygon style="fill:none;stroke:#FFFFFF;stroke-linejoin:round;stroke-miterlimit:10;" points="13.42,402.172 53.18,400.095 
				55.405,416.414 11.194,421.903 			"/>
			<polygon style="fill:none;stroke:#FFFFFF;stroke-linejoin:round;stroke-miterlimit:10;" points="-5.174,400.095 -5.174,418.008 
				7.09,418.008 9.859,402.024 			"/>
			<polygon style="fill:none;stroke:#FFFFFF;stroke-linejoin:round;stroke-miterlimit:10;" points="-3.958,361.167 13.497,361.531 
				10.552,398.611 -3.79,395.941 			"/>
			<polygon style="fill:none;stroke:#FFFFFF;stroke-linejoin:round;stroke-miterlimit:10;" points="16.684,361.67 48.243,360.842 
				52.438,393.864 15.052,400.095 			"/>
			<polygon style="fill:none;stroke:#FFFFFF;stroke-linejoin:round;stroke-miterlimit:10;" points="51.046,359.411 74.14,349.427 
				76.323,391.49 55.405,393.864 			"/>
			<polygon style="fill:none;stroke:#FFFFFF;stroke-linejoin:round;stroke-miterlimit:10;" points="58.075,397.87 76.323,396.386 
				77.065,416.859 59.114,417.453 			"/>
			<polygon style="fill:none;stroke:#FFFFFF;stroke-linejoin:round;stroke-miterlimit:10;" points="81.763,366.863 106.143,356.923 
				108.665,413.447 84.78,413.447 			"/>
			<polygon style="fill:none;stroke:#FFFFFF;stroke-linejoin:round;stroke-miterlimit:10;" points="77.297,347.189 80.329,363.451 
				116.38,348.615 112.527,331.411 			"/>
			<polygon style="fill:none;stroke:#FFFFFF;stroke-linejoin:round;stroke-miterlimit:10;" points="108.665,366.517 
				120.039,366.517 133.292,485.796 150.165,486.621 149.917,496.083 121.819,496.082 			"/>
			<polygon style="fill:none;stroke:#FFFFFF;stroke-linejoin:round;stroke-miterlimit:10;" points="133.815,457.164 
				150.427,455.978 149.665,481.996 136.167,481.917 			"/>
			<polygon style="fill:none;stroke:#FFFFFF;stroke-linejoin:round;stroke-miterlimit:10;" points="129.138,400.095 151.5,398.667 
				150.544,452.325 133.292,453.454 			"/>
			<polygon style="fill:none;stroke:#FFFFFF;stroke-linejoin:round;stroke-miterlimit:10;" points="116.618,329.367 149.9,314.255 
				151.745,394.004 128.1,395.644 			"/>
			<polygon style="fill:none;stroke:#FFFFFF;stroke-linejoin:round;stroke-miterlimit:10;" points="160.75,437.629 163.854,437.629 
				163.854,449.646 195.009,493.115 160.509,496.039 			"/>
			<polygon style="fill:none;stroke:#FFFFFF;stroke-linejoin:round;stroke-miterlimit:10;" points="168.156,439.41 193.079,436.379 
				214.889,468.092 195.009,484.51 168.156,450.685 			"/>
			<polygon style="fill:none;stroke:#FFFFFF;stroke-linejoin:round;stroke-miterlimit:10;" points="197.234,487.626 
				221.417,475.312 249.456,496.082 202.13,495.686 			"/>
			<polygon style="fill:none;stroke:#FFFFFF;stroke-linejoin:round;stroke-miterlimit:10;" points="236.252,481.098 
				247.824,481.098 262.215,485.697 252.72,494.598 			"/>
			<polygon style="fill:none;stroke:#FFFFFF;stroke-linejoin:round;stroke-miterlimit:10;" points="245.302,475.312 279.276,461.96 
				285.507,465.52 265.404,483.768 			"/>
			<polygon style="fill:none;stroke:#FFFFFF;stroke-linejoin:round;stroke-miterlimit:10;" points="277.199,459.438 232.197,474.57 
				261.583,450.667 			"/>
			<polygon style="fill:none;stroke:#FFFFFF;stroke-linejoin:round;stroke-miterlimit:10;" points="222.752,469.501 227.648,474.57 
				258.109,448.929 250.313,443.688 			"/>
			<polygon style="fill:none;stroke:#FFFFFF;stroke-linejoin:round;stroke-miterlimit:10;" points="245.302,440.596 
				217.559,463.888 166.228,384.517 			"/>
			<polygon style="fill:none;stroke:#FFFFFF;stroke-linejoin:round;stroke-miterlimit:10;" points="161.48,386.743 161.48,434.365 
				190.333,431.917 			"/>
			<polygon style="fill:none;stroke:#FFFFFF;stroke-linejoin:round;stroke-miterlimit:10;" points="159.997,371.017 204,366.625 
				206.432,395.644 204.059,406.178 159.997,378.286 			"/>
			<polygon style="fill:none;stroke:#FFFFFF;stroke-linejoin:round;stroke-miterlimit:10;" points="214.889,411.419 
				279.573,455.927 279.573,434.365 265.404,430.31 278.979,410.554 			"/>
			<polygon style="fill:none;stroke:#FFFFFF;stroke-linejoin:round;stroke-miterlimit:10;" points="285.902,410.554 
				322.695,410.554 345.839,427.739 345.839,435.256 270.473,429.025 			"/>
			<polygon style="fill:none;stroke:#FFFFFF;stroke-linejoin:round;stroke-miterlimit:10;" points="283.529,436.442 
				283.529,453.207 331.596,453.207 345.839,438.915 			"/>
			<polygon style="fill:none;stroke:#FFFFFF;stroke-linejoin:round;stroke-miterlimit:10;" points="304.398,457.212 
				304.398,466.707 284.864,461.169 284.864,458.201 			"/>
			<polygon style="fill:none;stroke:#FFFFFF;stroke-linejoin:round;stroke-miterlimit:10;" points="330.706,456.52 330.706,466.707 
				308.651,466.213 308.651,455.927 			"/>
			<polygon style="fill:none;stroke:#FFFFFF;stroke-linejoin:round;stroke-miterlimit:10;" points="347.026,443.959 334.465,455.58 
				334.465,465.125 349.597,465.125 			"/>
			<polygon style="fill:none;stroke:#FFFFFF;stroke-linejoin:round;stroke-miterlimit:10;" points="349.597,422.905 404.341,420.42 
				404.341,450.091 356.125,459.289 			"/>
			<polygon style="fill:none;stroke:#FFFFFF;stroke-linejoin:round;stroke-miterlimit:10;" points="344.405,407.216 
				404.341,411.815 353.454,416.711 			"/>
			<polygon style="fill:none;stroke:#FFFFFF;stroke-linejoin:round;stroke-miterlimit:10;" points="410.423,408.996 
				442.765,408.996 440.985,439.855 413.094,447.421 			"/>
			<polygon style="fill:none;stroke:#FFFFFF;stroke-linejoin:round;stroke-miterlimit:10;" points="447.513,408.996 
				509.526,397.573 505.817,429.025 447.513,441.635 			"/>
			<polygon style="fill:none;stroke:#FFFFFF;stroke-linejoin:round;stroke-miterlimit:10;" points="408.05,349.653 445.436,343.274 
				446.623,402.914 412.055,402.914 			"/>
			<polygon style="fill:none;stroke:#FFFFFF;stroke-linejoin:round;stroke-miterlimit:10;" points="453.002,387.336 454.634,401.43 
				508.636,391.342 511.751,383.034 			"/>
			<polygon style="fill:none;stroke:#FFFFFF;stroke-linejoin:round;stroke-miterlimit:10;" points="451.222,363.006 
				453.002,383.034 512.938,377.693 511.751,362.115 			"/>
			<polygon style="fill:none;stroke:#FFFFFF;stroke-linejoin:round;stroke-miterlimit:10;" points="453.744,343.274 
				456.414,362.115 511.751,357.368 507.597,337.191 			"/>
			<polygon style="fill:none;stroke:#FFFFFF;stroke-linejoin:round;stroke-miterlimit:10;" points="337.135,353.956 
				372.296,352.769 372.296,399.501 350.339,399.501 			"/>
			<polygon style="fill:none;stroke:#FFFFFF;stroke-linejoin:round;stroke-miterlimit:10;" points="376.969,352.027 
				402.412,350.395 404.341,402.914 374.373,402.024 			"/>
			<polygon style="fill:none;stroke:#FFFFFF;stroke-linejoin:round;stroke-miterlimit:10;" points="275.371,385.517 
				334.465,383.479 337.135,399.501 274.75,399.501 			"/>
			<polygon style="fill:none;stroke:#FFFFFF;stroke-linejoin:round;stroke-miterlimit:10;" points="274.625,367.125 275.247,378.93 
				329.866,376.654 327.64,365.676 			"/>
			<polygon style="fill:none;stroke:#FFFFFF;stroke-linejoin:round;stroke-miterlimit:10;" points="209.696,366.517 268.17,366.517 
				266.814,399.501 212.367,399.501 			"/>
			<polygon style="fill:none;stroke:#FFFFFF;stroke-linejoin:round;stroke-miterlimit:10;" points="174.239,349.357 
				172.904,363.006 267.111,361.819 265.182,349.357 			"/>
			<polygon style="fill:none;stroke:#FFFFFF;stroke-linejoin:round;stroke-miterlimit:10;" points="272.006,347.131 
				274.083,363.006 315.178,361.225 			"/>
			<path style="fill:none;stroke:#FFFFFF;stroke-linejoin:round;stroke-miterlimit:10;" d="M158.612,312.713
				c0,0,42.008-9.378,56.277-10.484c11.715-0.908,46.98,1.385,46.98,1.385l1.187,40.947h-92.97l-1.78,14.242l-8.308,3.363
				L158.612,312.713z"/>
			<polygon style="fill:none;stroke:#FFFFFF;stroke-linejoin:round;stroke-miterlimit:10;" points="267.111,300.646 
				319.629,296.888 323.783,320.823 276.457,322.603 277.693,343.274 270.473,343.274 			"/>
			<polygon style="fill:none;stroke:#FFFFFF;stroke-linejoin:round;stroke-miterlimit:10;" points="280.66,324.581 295.447,324.581 
				296.485,344.758 282.243,341.593 			"/>
			<polygon style="fill:none;stroke:#FFFFFF;stroke-linejoin:round;stroke-miterlimit:10;" points="300.244,324.581 
				323.783,324.581 329.866,362.165 300.244,351.285 			"/>
			<polygon style="fill:none;stroke:#FFFFFF;stroke-linejoin:round;stroke-miterlimit:10;" points="133.095,253.37 120.435,254.952 
				126.765,228.05 			"/>
			<polygon style="fill:none;stroke:#FFFFFF;stroke-linejoin:round;stroke-miterlimit:10;" points="133.095,257.326 134.084,266.03 
				126.765,267.019 126.765,278.491 116.38,277.305 120.435,259.502 			"/>
			<polygon style="fill:none;stroke:#FFFFFF;stroke-linejoin:round;stroke-miterlimit:10;" points="129.138,269.59 129.138,276.711 
				137.446,275.722 134.084,269.59 			"/>
			<polygon style="fill:none;stroke:#FFFFFF;stroke-linejoin:round;stroke-miterlimit:10;" points="116.38,281.261 139.227,278.491 
				147.337,303.415 117.75,317.25 108.665,309.548 			"/>
			<polygon style="fill:none;stroke:#FFFFFF;stroke-linejoin:round;stroke-miterlimit:10;" points="72.763,320.081 75.419,336.408 
				112.75,319.375 108.072,315.235 86.189,316.273 			"/>
			<polygon style="fill:none;stroke:#FFFFFF;stroke-linejoin:round;stroke-miterlimit:10;" points="68.238,319.24 71.625,337.75 
				48.564,347.155 46.207,322.949 			"/>
			<polygon style="fill:none;stroke:#FFFFFF;stroke-linejoin:round;stroke-miterlimit:10;" points="45.748,350.343 41.917,352.292 
				33.813,352.507 30.703,325.397 43.611,322.875 			"/>
			<polygon style="fill:none;stroke:#FFFFFF;stroke-linejoin:round;stroke-miterlimit:10;" points="27.959,326.139 20.096,326.139 
				17.574,340.381 29.665,339.009 			"/>
			<polygon style="fill:none;stroke:#FFFFFF;stroke-linejoin:round;stroke-miterlimit:10;" points="17.574,345.425 30.703,344.164 
				30.703,352.5 17.574,352.75 			"/>
			<polygon style="fill:none;stroke:#FFFFFF;stroke-linejoin:round;stroke-miterlimit:10;" points="15.052,328.958 -3.79,330.219 
				-3.79,352.25 11.565,352.25 			"/>
			<polygon style="fill:none;stroke:#FFFFFF;stroke-linejoin:round;stroke-miterlimit:10;" points="16.313,294.836 16.313,323.988 
				-4.976,326.139 -4.976,319.982 			"/>
			<polygon style="fill:none;stroke:#FFFFFF;stroke-linejoin:round;stroke-miterlimit:10;" points="18.538,285.118 36.564,282.225 
				42.275,318.202 21.357,320.056 			"/>
			<polygon style="fill:none;stroke:#FFFFFF;stroke-linejoin:round;stroke-miterlimit:10;" points="61.191,280.742 65.048,313.158 
				44.797,317.386 40.272,281.409 			"/>
			<polygon style="fill:none;stroke:#FFFFFF;stroke-linejoin:round;stroke-miterlimit:10;" points="30.407,271.964 34.981,277.502 
				65.048,277.502 69.598,316.768 88.291,312.713 101.247,312.811 116.38,262.073 			"/>
			<polygon style="fill:none;stroke:#FFFFFF;stroke-linejoin:round;stroke-miterlimit:10;" points="-3.79,273.151 21.728,271.766 
				21.728,279.085 -1.119,304.998 			"/>
			<polygon style="fill:none;stroke:#FFFFFF;stroke-linejoin:round;stroke-miterlimit:10;" points="-2.702,238.336 23.706,238.336 
				21.728,266.821 -2.702,268.898 			"/>
			<polygon style="fill:none;stroke:#FFFFFF;stroke-linejoin:round;stroke-miterlimit:10;" points="55.257,232.501 26.871,238.93 
				25.981,267.513 60.301,263.656 			"/>
			<polygon style="fill:none;stroke:#FFFFFF;stroke-linejoin:round;stroke-miterlimit:10;" points="59.114,232.995 61.784,247.04 
				74.444,242.589 73.393,229.929 			"/>
			<polygon style="fill:none;stroke:#FFFFFF;stroke-linejoin:round;stroke-miterlimit:10;" points="76.62,245.26 61.488,248.919 
				63.367,263.26 78.994,262.073 			"/>
			<polygon style="fill:none;stroke:#FFFFFF;stroke-linejoin:round;stroke-miterlimit:10;" points="89.774,225.874 89.774,238.336 
				78.104,239.721 76.323,228.94 			"/>
			<polygon style="fill:none;stroke:#FFFFFF;stroke-linejoin:round;stroke-miterlimit:10;" points="78.994,241.105 92.445,240.314 
				92.445,224.984 122.512,219.05 123.105,229.929 115.391,256.337 80.774,260.095 			"/>
			<polygon style="fill:none;stroke:#FFFFFF;stroke-linejoin:round;stroke-miterlimit:10;" points="53.179,153.62 134.767,160.594 
				120.435,213.758 77.955,226.517 34.041,232.501 			"/>
			<polygon style="fill:none;stroke:#FFFFFF;stroke-linejoin:round;stroke-miterlimit:10;" points="-5.718,205.45 28.552,207.231 
				21.875,230 -5.718,229.25 			"/>
			<polygon style="fill:none;stroke:#FFFFFF;stroke-linejoin:round;stroke-miterlimit:10;" points="-3.79,167.619 39.738,163.62 
				29.422,203.568 -4.828,201.741 			"/>
			<polygon style="fill:none;stroke:#FFFFFF;stroke-linejoin:round;stroke-miterlimit:10;" points="46.12,140.994 41.963,156.848 
				2.738,163.762 			"/>
			<polygon style="fill:none;stroke:#FFFFFF;stroke-linejoin:round;stroke-miterlimit:10;" points="50.875,141.375 104.215,147.931 
				94.571,120.738 			"/>
			<polygon style="fill:none;stroke:#FFFFFF;stroke-linejoin:round;stroke-miterlimit:10;" points="104.511,134.239 128.99,134.239 
				124.732,150.845 111.262,148.932 			"/>
			<polygon style="fill:none;stroke:#FFFFFF;stroke-linejoin:round;stroke-miterlimit:10;" points="130.77,134.239 142.342,134.239 
				134.896,152.289 127.283,151.207 			"/>
			<polygon style="fill:none;stroke:#FFFFFF;stroke-linejoin:round;stroke-miterlimit:10;" points="113.413,106.496 97.093,115.991 
				102.137,128.305 138.633,131.568 142.342,110.798 			"/>
			<polygon style="fill:none;stroke:#FFFFFF;stroke-linejoin:round;stroke-miterlimit:10;" points="107.775,87.803 146.496,92.699 
				142.342,105.754 112.671,102.194 			"/>
			<polygon style="fill:none;stroke:#FFFFFF;stroke-linejoin:round;stroke-miterlimit:10;" points="110.594,63.918 104.511,83.797 
				144.122,83.797 146.496,73.412 			"/>
			<polygon style="fill:none;stroke:#FFFFFF;stroke-linejoin:round;stroke-miterlimit:10;" points="119.718,37.658 151.244,40.329 
				144.122,69.555 113.561,60.951 			"/>
			<polygon style="fill:none;stroke:#FFFFFF;stroke-linejoin:round;stroke-miterlimit:10;" points="109.951,103.826 
				-15.856,167.718 -32.076,131.568 7.486,98.88 99.863,83.797 			"/>
			<polygon style="fill:none;stroke:#FFFFFF;stroke-linejoin:round;stroke-miterlimit:10;" points="26.871,65.846 16.684,87.803 
				19.75,92.353 48.234,85.825 52.784,70.396 			"/>
			<polygon style="fill:none;stroke:#FFFFFF;stroke-linejoin:round;stroke-miterlimit:10;" points="-7.35,62.088 18.365,65.846 
				2.738,96.779 -4.828,96.779 			"/>
			<polygon style="fill:none;stroke:#FFFFFF;stroke-linejoin:round;stroke-miterlimit:10;" points="38.937,34.592 62.279,34.592 
				52.784,65.846 29.245,62.088 			"/>
			<polygon style="fill:none;stroke:#FFFFFF;stroke-linejoin:round;stroke-miterlimit:10;" points="34.041,34.592 22.717,63.918 
				-7.35,57.934 -1.811,31.625 			"/>
			<polygon style="fill:none;stroke:#FFFFFF;stroke-linejoin:round;stroke-miterlimit:10;" points="149.315,33.406 107.775,34.592 
				106.786,7.492 152.282,9.668 			"/>
			<polygon style="fill:none;stroke:#FFFFFF;stroke-linejoin:round;stroke-miterlimit:10;" points="129.534,-30.141 
				146.496,-45.718 164.892,-32.069 158.661,-6.849 146.496,2.349 			"/>
			<polygon style="fill:none;stroke:#FFFFFF;stroke-linejoin:round;stroke-miterlimit:10;" points="123.352,-30.289 115.49,-8.629 
				129.534,-1.359 139.523,-5.662 			"/>
			<polygon style="fill:none;stroke:#FFFFFF;stroke-linejoin:round;stroke-miterlimit:10;" points="118.605,-31.328 98.725,-36.965 
				97.093,-6.255 105.846,-2.695 			"/>
			<polygon style="fill:none;stroke:#FFFFFF;stroke-linejoin:round;stroke-miterlimit:10;" points="170.876,-38.399 
				164.892,-11.102 188.481,-30.289 			"/>
			<polygon style="fill:none;stroke:#FFFFFF;stroke-linejoin:round;stroke-miterlimit:10;" points="163.755,-8.53 183.536,-11.102 
				190.459,-2.695 160.194,14.416 			"/>
			<polygon style="fill:none;stroke:#FFFFFF;stroke-linejoin:round;stroke-miterlimit:10;" points="188.481,4.723 196.987,1.657 
				214.724,20.356 205.295,34.592 195.009,34.592 			"/>
			<polygon style="fill:none;stroke:#FFFFFF;stroke-linejoin:round;stroke-miterlimit:10;" points="181.558,6.108 165.733,15.603 
				188.481,24.306 			"/>
			<polygon style="fill:none;stroke:#FFFFFF;stroke-linejoin:round;stroke-miterlimit:10;" points="158.81,18.965 158.81,36.373 
				188.481,31.23 			"/>
			<polygon style="fill:none;stroke:#FFFFFF;stroke-linejoin:round;stroke-miterlimit:10;" points="155.645,40.329 154.26,68.418 
				193.229,45.274 193.229,38.351 			"/>
			<polygon style="fill:none;stroke:#FFFFFF;stroke-linejoin:round;stroke-miterlimit:10;" points="197.976,40.131 213.603,34.592 
				222.938,22.063 236.932,36.875 197.976,45.67 			"/>
			<polygon style="fill:none;stroke:#FFFFFF;stroke-linejoin:round;stroke-miterlimit:10;" points="187.375,-19.125 203.713,-31.08 
				227.252,1.657 215.562,6.729 			"/>
			<polygon style="fill:none;stroke:#FFFFFF;stroke-linejoin:round;stroke-miterlimit:10;" points="209.053,-36.965 
				245.648,-34.048 228.637,-4.772 			"/>
			<polygon style="fill:none;stroke:#FFFFFF;stroke-linejoin:round;stroke-miterlimit:10;" points="247.033,-23.168 277.298,-9.915 
				247.033,28.658 225.594,10.948 			"/>
			<polygon style="fill:none;stroke:#FFFFFF;stroke-linejoin:round;stroke-miterlimit:10;" points="281.452,-24.75 274.924,-14.069 
				249.802,-26.531 255.736,-36.026 			"/>
			<polygon style="fill:none;stroke:#FFFFFF;stroke-linejoin:round;stroke-miterlimit:10;" points="285.804,-36.026 
				283.232,-28.707 266.418,-36.965 			"/>
			<polygon style="fill:none;stroke:#FFFFFF;stroke-linejoin:round;stroke-miterlimit:10;" points="330.311,-16.64 285.012,-14.069 
				293.32,-31.08 337.234,-32.836 			"/>
			<polygon style="fill:none;stroke:#FFFFFF;stroke-linejoin:round;stroke-miterlimit:10;" points="331.695,-11.102 278.485,-6.948 
				258.308,23.317 287.386,53.384 308.552,47.45 311.123,53.607 337.234,49.824 			"/>
			<polygon style="fill:none;stroke:#FFFFFF;stroke-linejoin:round;stroke-miterlimit:10;" points="257.171,26.828 252.106,32.699 
				283.727,65.475 299.823,61.321 299.823,55.832 303.755,52.272 283.875,55.758 			"/>
			<polygon style="fill:none;stroke:#FFFFFF;stroke-linejoin:round;stroke-miterlimit:10;" points="289.166,73.363 337.234,63.275 
				345.146,95.518 322.596,101.65 			"/>
			<polygon style="fill:none;stroke:#FFFFFF;stroke-linejoin:round;stroke-miterlimit:10;" points="386.489,51.011 393.412,84.44 
				350.289,94.133 342.773,60.703 			"/>
			<polygon style="fill:none;stroke:#FFFFFF;stroke-linejoin:round;stroke-miterlimit:10;" points="327.541,106.199 382.532,92.155 
				389.676,118.407 378.843,147.28 			"/>
			<polygon style="fill:none;stroke:#FFFFFF;stroke-linejoin:round;stroke-miterlimit:10;" points="386.489,92.155 395.786,88.693 
				397.156,97.86 391.167,113.167 			"/>
			<polygon style="fill:none;stroke:#FFFFFF;stroke-linejoin:round;stroke-miterlimit:10;" points="390.445,49.428 420.635,43.691 
				399.841,88.693 			"/>
			<polygon style="fill:none;stroke:#FFFFFF;stroke-linejoin:round;stroke-miterlimit:10;" points="364.73,28.015 365.768,41.664 
				370.367,40.774 371.702,48.637 408.792,41.367 404.193,21.253 			"/>
			<polygon style="fill:none;stroke:#FFFFFF;stroke-linejoin:round;stroke-miterlimit:10;" points="359.982,29.647 361.762,41.516 
				341.437,46.152 341.437,32.021 			"/>
			<polygon style="fill:none;stroke:#FFFFFF;stroke-linejoin:round;stroke-miterlimit:10;" points="335.206,-11.102 351.6,-15.157 
				361.762,-32.836 368.092,21.253 340.547,26.828 			"/>
			<polygon style="fill:none;stroke:#FFFFFF;stroke-linejoin:round;stroke-miterlimit:10;" points="365.62,-32.836 389.802,-35.037 
				401.967,15.998 371.702,22.378 			"/>
			<polygon style="fill:none;stroke:#FFFFFF;stroke-linejoin:round;stroke-miterlimit:10;" points="342.773,-32.069 
				357.608,-32.069 348.114,-18.569 337.234,-16.937 			"/>
			<polygon style="fill:none;stroke:#FFFFFF;stroke-linejoin:round;stroke-miterlimit:10;" points="397.368,-33.553 
				454.188,-21.213 422.737,37.9 412.501,38.994 			"/>
			<polygon style="fill:none;stroke:#FFFFFF;stroke-linejoin:round;stroke-miterlimit:10;" points="410.127,-35.037 
				457.601,-24.503 466.651,-35.037 			"/>
			<polygon style="fill:none;stroke:#FFFFFF;stroke-linejoin:round;stroke-miterlimit:10;" points="471.114,-33.717 477.25,-35.75 
				448.431,30.137 439.152,25.192 			"/>
			<polygon style="fill:none;stroke:#FFFFFF;stroke-linejoin:round;stroke-miterlimit:10;" points="437.1,29.187 446.632,34.271 
				414.278,108.64 404.25,103.974 			"/>
			<polygon style="fill:none;stroke:#FFFFFF;stroke-linejoin:round;stroke-miterlimit:10;" points="402.352,108.916 
				412.216,113.378 407.266,124.756 397.782,120.836 			"/>
			<polygon style="fill:none;stroke:#FFFFFF;stroke-linejoin:round;stroke-miterlimit:10;" points="396.478,123.112 
				406.065,127.516 394.104,155.009 387.577,150.41 			"/>
			<polygon style="fill:none;stroke:#FFFFFF;stroke-linejoin:round;stroke-miterlimit:10;" points="442.354,53.006 436.386,66.044 
				454.972,76.048 462.515,63.93 			"/>
			<polygon style="fill:none;stroke:#FFFFFF;stroke-linejoin:round;stroke-miterlimit:10;" points="435.449,67.979 424.517,92.155 
				431.342,95.221 441.578,83.056 450.332,83.501 453.773,77.973 			"/>
			<polygon style="fill:none;stroke:#FFFFFF;stroke-linejoin:round;stroke-miterlimit:10;" points="422.885,95.221 415.171,121.035 
				430.897,100.018 			"/>
			<polygon style="fill:none;stroke:#FFFFFF;stroke-linejoin:round;stroke-miterlimit:10;" points="410.667,126.833 424.75,133.333 
				405.5,164.917 399.167,159.25 			"/>
			<polygon style="fill:none;stroke:#FFFFFF;stroke-linejoin:round;stroke-miterlimit:10;" points="486.531,-31.921 478.668,-15.75 
				501.07,-1.063 519.911,-25.393 			"/>
			<polygon style="fill:none;stroke:#FFFFFF;stroke-linejoin:round;stroke-miterlimit:10;" points="523.323,-23.613 504.185,5.168 
				526.735,22.378 			"/>
			<polygon style="fill:none;stroke:#FFFFFF;stroke-linejoin:round;stroke-miterlimit:10;" points="472.437,-12.19 462.052,10.064 
				486.148,25.971 500.119,3.529 			"/>
			<polygon style="fill:none;stroke:#FFFFFF;stroke-linejoin:round;stroke-miterlimit:10;" points="484.22,29.068 478.886,37.635 
				455.597,24.29 460.258,14.185 			"/>
			<polygon style="fill:none;stroke:#FFFFFF;stroke-linejoin:round;stroke-miterlimit:10;" points="477.64,39.804 472.699,47.573 
				450.603,35.118 454.413,26.857 			"/>
			<polygon style="fill:none;stroke:#FFFFFF;stroke-linejoin:round;stroke-miterlimit:10;" points="471.286,49.843 464.781,60.29 
				444.082,49.259 449.341,37.856 			"/>
			<polygon style="fill:none;stroke:#FFFFFF;stroke-linejoin:round;stroke-miterlimit:10;" points="500.921,10.806 528.961,28.905 
				454.931,141.36 422.193,118.661 444.694,85.578 451.073,88.693 			"/>
			<polygon style="fill:none;stroke:#FFFFFF;stroke-linejoin:round;stroke-miterlimit:10;" points="532.076,38.994 493.949,100.71 
				528.071,110.057 			"/>
			<polygon style="fill:none;stroke:#FFFFFF;stroke-linejoin:round;stroke-miterlimit:10;" points="494.987,103.974 
				507.449,110.057 494.987,135.426 477.481,123.112 			"/>
			<polygon style="fill:none;stroke:#FFFFFF;stroke-linejoin:round;stroke-miterlimit:10;" points="473.475,130.382 490.981,138.69 
				478.223,157.383 459.233,146.553 			"/>
			<polygon style="fill:none;stroke:#FFFFFF;stroke-linejoin:round;stroke-miterlimit:10;" points="513.012,115.398 
				527.626,116.584 529.851,160.646 499.586,162.872 500.476,138.393 			"/>
			<polygon style="fill:none;stroke:#FFFFFF;stroke-linejoin:round;stroke-miterlimit:10;" points="495.581,142.844 
				490.981,152.042 497.361,161.24 			"/>
			<polygon style="fill:none;stroke:#FFFFFF;stroke-linejoin:round;stroke-miterlimit:10;" points="508.636,175.631 
				528.961,185.274 490.654,239.075 471.25,225.479 			"/>
			<polygon style="fill:none;stroke:#FFFFFF;stroke-linejoin:round;stroke-miterlimit:10;" points="529.851,194.62 526.587,249.661 
				505.52,251.441 493.058,242.243 			"/>
			<polygon style="fill:none;stroke:#FFFFFF;stroke-linejoin:round;stroke-miterlimit:10;" points="514.867,255.447 
				526.587,255.447 529.851,291.349 516.35,291.349 			"/>
			<polygon style="fill:none;stroke:#FFFFFF;stroke-linejoin:round;stroke-miterlimit:10;" points="497.361,255.447 
				508.339,255.447 508.339,291.943 500.105,291.943 			"/>
			<polygon style="fill:none;stroke:#FFFFFF;stroke-linejoin:round;stroke-miterlimit:10;" points="528.961,296.69 511.455,330.96 
				511.455,296.69 			"/>
			<path style="fill:none;stroke:#FFFFFF;stroke-linejoin:round;stroke-miterlimit:10;" d="M151.244,82.462
				c0,0,7.092-8.882,10.138-11.077c30.463-21.957,78.376-31.552,78.376-31.552l-11.715,37.486l-9.297,3.758L151.244,82.462z"/>
			<polygon style="fill:none;stroke:#FFFFFF;stroke-linejoin:round;stroke-miterlimit:10;" points="193.97,88.842 215.037,84.688 
				222.01,96.779 219.636,109.463 194.589,105.013 			"/>
			<polygon style="fill:none;stroke:#FFFFFF;stroke-linejoin:round;stroke-miterlimit:10;" points="190.558,87.803 190.558,104.567 
				173.744,101.65 163.854,84.688 			"/>
			<polygon style="fill:none;stroke:#FFFFFF;stroke-linejoin:round;stroke-miterlimit:10;" points="151.244,84.688 157.623,84.688 
				169.046,104.567 165.338,118.365 146.496,116.139 			"/>
			<polygon style="fill:none;stroke:#FFFFFF;stroke-linejoin:round;stroke-miterlimit:10;" points="172.162,104.567 190.558,107.98 
				185.366,136.613 144.419,132.607 145.754,120.738 169.046,123.409 			"/>
			<polygon style="fill:none;stroke:#FFFFFF;stroke-linejoin:round;stroke-miterlimit:10;" points="193.229,108.721 
				190.558,136.613 211.773,136.613 218.894,113.172 			"/>
			<polygon style="fill:none;stroke:#FFFFFF;stroke-linejoin:round;stroke-miterlimit:10;" points="237.934,94.628 227.351,101.65 
				222.752,109.463 248.714,113.914 248.714,109.463 			"/>
			<polygon style="fill:none;stroke:#FFFFFF;stroke-linejoin:round;stroke-miterlimit:10;" points="243.101,43.331 234.917,78.16 
				238.107,82.462 260.138,76.973 263.995,82.462 240.11,84.688 255.39,114.804 284.121,110.041 279.233,81.144 			"/>
			<polygon style="fill:none;stroke:#FFFFFF;stroke-linejoin:round;stroke-miterlimit:10;" points="241.89,119.032 284.617,113.172 
				291.589,141.212 239.664,139.431 			"/>
			<polygon style="fill:none;stroke:#FFFFFF;stroke-linejoin:round;stroke-miterlimit:10;" points="237.934,117.623 222.01,113.172 
				217.263,136.613 235.733,139.728 			"/>
			<polygon style="fill:none;stroke:#FFFFFF;stroke-linejoin:round;stroke-miterlimit:10;" points="144.419,139.728 
				171.272,139.728 167.396,156.905 143.447,153.503 			"/>
			<polygon style="fill:none;stroke:#FFFFFF;stroke-linejoin:round;stroke-miterlimit:10;" points="174.536,141.212 
				185.811,141.879 182.25,159.015 170.498,157.345 			"/>
			<polygon style="fill:none;stroke:#FFFFFF;stroke-linejoin:round;stroke-miterlimit:10;" points="188.63,142.918 209.696,142.918 
				207.99,159.015 188.63,159.015 			"/>
			<polygon style="fill:none;stroke:#FFFFFF;stroke-linejoin:round;stroke-miterlimit:10;" points="217.263,141.879 
				213.257,159.015 233.433,159.015 235.733,145.366 			"/>
			<polygon style="fill:none;stroke:#FFFFFF;stroke-linejoin:round;stroke-miterlimit:10;" points="239.664,145.959 
				237.934,159.015 256.726,159.015 260.583,145.959 			"/>
			<polygon style="fill:none;stroke:#FFFFFF;stroke-linejoin:round;stroke-miterlimit:10;" points="263.698,145.959 
				291.589,145.959 294.112,159.015 261.77,159.015 			"/>
			<polygon style="fill:none;stroke:#FFFFFF;stroke-linejoin:round;stroke-miterlimit:10;" points="307.515,104.941 284.4,85.832 
				289.859,117.672 			"/>
			<polygon style="fill:none;stroke:#FFFFFF;stroke-linejoin:round;stroke-miterlimit:10;" points="313.057,109.523 294.112,124.2 
				311.222,145.959 337.646,129.85 			"/>
			<polygon style="fill:none;stroke:#FFFFFF;stroke-linejoin:round;stroke-miterlimit:10;" points="341.025,132.644 
				350.728,140.665 331.498,159.015 320.222,159.015 314.387,150.608 			"/>
			<polygon style="fill:none;stroke:#FFFFFF;stroke-linejoin:round;stroke-miterlimit:10;" points="294.875,133.563 
				298.688,159.015 314.882,158.904 			"/>
			<polygon style="fill:none;stroke:#FFFFFF;stroke-linejoin:round;stroke-miterlimit:10;" points="355.643,144.728 
				339.165,159.821 362.25,162.25 372,158.25 			"/>
			<polygon style="fill:none;stroke:#FFFFFF;stroke-linejoin:round;stroke-miterlimit:10;" points="368.855,169.816 
				382.237,163.196 391.038,164.751 390.445,184.136 369.583,188.75 			"/>
			<polygon style="fill:none;stroke:#FFFFFF;stroke-linejoin:round;stroke-miterlimit:10;" points="363.917,172.083 
				338.776,172.037 340.498,186.411 365.125,185.818 			"/>
			<polygon style="fill:none;stroke:#FFFFFF;stroke-linejoin:round;stroke-miterlimit:10;" points="391.038,186.411 
				385.203,189.675 368.982,191.752 378.873,210.247 392.027,203.522 			"/>
			<polygon style="fill:none;stroke:#FFFFFF;stroke-linejoin:round;stroke-miterlimit:10;" points="380.505,214.896 
				392.027,208.566 390.247,233.292 			"/>
			<polygon style="fill:none;stroke:#FFFFFF;stroke-linejoin:round;stroke-miterlimit:10;" points="375.906,216.182 
				355.828,228.545 355.828,237.545 386.785,234.578 			"/>
			<polygon style="fill:none;stroke:#FFFFFF;stroke-linejoin:round;stroke-miterlimit:10;" points="342.674,190.071 
				363.839,190.071 374.521,212.225 354.641,223.204 354.196,216.182 			"/>
			<polygon style="fill:none;stroke:#FFFFFF;stroke-linejoin:round;stroke-miterlimit:10;" points="304.892,191.455 
				336.443,189.675 349.993,219.346 309.738,221.423 			"/>
			<polygon style="fill:none;stroke:#FFFFFF;stroke-linejoin:round;stroke-miterlimit:10;" points="301.134,172.762 
				303.504,186.381 335.438,185.5 335.936,172.082 			"/>
			<polygon style="fill:none;stroke:#FFFFFF;stroke-linejoin:round;stroke-miterlimit:10;" points="352.119,224.143 
				352.119,237.545 314.288,238.905 310.876,226.863 			"/>
			<polygon style="fill:none;stroke:#FFFFFF;stroke-linejoin:round;stroke-miterlimit:10;" points="329.717,242.243 
				353.009,259.749 351.822,242.243 			"/>
			<polygon style="fill:none;stroke:#FFFFFF;stroke-linejoin:round;stroke-miterlimit:10;" points="314.436,244.691 
				324.302,244.691 343.44,260.788 317.997,260.788 			"/>
			<polygon style="fill:none;stroke:#FFFFFF;stroke-linejoin:round;stroke-miterlimit:10;" points="322.596,266.054 
				348.262,264.348 360.501,271.321 363.32,282.299 325.118,286.231 			"/>
			<polygon style="fill:none;stroke:#FFFFFF;stroke-linejoin:round;stroke-miterlimit:10;" points="395.884,168.509 
				399.445,235.171 448.007,217.566 			"/>
			<polygon style="fill:none;stroke:#FFFFFF;stroke-linejoin:round;stroke-miterlimit:10;" points="409.366,168.25 429.265,136.168 
				474.217,165.443 485.937,154.119 497.361,167.471 460.665,216.875 			"/>
			<polygon style="fill:none;stroke:#FFFFFF;stroke-linejoin:round;stroke-miterlimit:10;" points="402.017,239.82 446.425,223.031 
				446.919,229.534 421.946,270.282 411.511,270.282 411.413,258.612 403.302,258.315 			"/>
			<polygon style="fill:none;stroke:#FFFFFF;stroke-linejoin:round;stroke-miterlimit:10;" points="451.073,229.138 
				426.248,272.656 465.415,272.656 			"/>
			<polygon style="fill:none;stroke:#FFFFFF;stroke-linejoin:round;stroke-miterlimit:10;" points="457.898,229.138 
				479.113,293.574 494.986,292.542 492.375,253.25 			"/>
			<polygon style="fill:none;stroke:#FFFFFF;stroke-linejoin:round;stroke-miterlimit:10;" points="505.224,298.025 
				460.717,301.882 465.415,336.153 508.339,331.851 			"/>
			<polygon style="fill:none;stroke:#FFFFFF;stroke-linejoin:round;stroke-miterlimit:10;" points="356.867,242.243 358.276,263.31 
				391.36,259.749 391.36,241.13 			"/>
			<polygon style="fill:none;stroke:#FFFFFF;stroke-linejoin:round;stroke-miterlimit:10;" points="366.312,267.019 408.05,263.31 
				411.61,312.119 368.982,317.089 			"/>
			<polygon style="fill:none;stroke:#FFFFFF;stroke-linejoin:round;stroke-miterlimit:10;" points="327.442,291.943 363.32,287.789 
				366.312,324.581 411.61,318.647 412.995,341.395 333.871,350.395 			"/>
			<polygon style="fill:none;stroke:#FFFFFF;stroke-linejoin:round;stroke-miterlimit:10;" points="412.995,277.305 
				465.415,277.305 471.25,293.574 452.854,295.503 459.085,337.191 417.545,340.208 			"/>
			<polygon style="fill:none;stroke:#FFFFFF;stroke-linejoin:round;stroke-miterlimit:10;" points="143.529,161.75 143.529,167.718 
				194.564,184.829 198.25,173.188 192.125,173.188 			"/>
			<polygon style="fill:none;stroke:#FFFFFF;stroke-linejoin:round;stroke-miterlimit:10;" points="205.876,182.265 
				255.251,181.875 253.688,173.188 208.057,173.236 			"/>
			<polygon style="fill:none;stroke:#FFFFFF;stroke-linejoin:round;stroke-miterlimit:10;" points="257.25,173.188 259,181.563 
				299.313,181.5 297.623,172.687 			"/>
			<polygon style="fill:none;stroke:#FFFFFF;stroke-linejoin:round;stroke-miterlimit:10;" points="140.265,170.883 
				128.001,216.429 145.458,289.42 			"/>
			<polygon style="fill:none;stroke:#FFFFFF;stroke-linejoin:round;stroke-miterlimit:10;" points="155.101,175.631 
				149.018,199.664 165.931,198.032 179.877,206.044 196.641,201.593 197.03,191.144 			"/>
			<polygon style="fill:none;stroke:#FFFFFF;stroke-linejoin:round;stroke-miterlimit:10;" points="147.337,203.818 
				164.744,202.483 197.828,219.05 205.965,292.032 152.579,300.399 			"/>
			<polygon style="fill:none;stroke:#FFFFFF;stroke-linejoin:round;stroke-miterlimit:10;" points="202.13,217.764 257.171,207.824 
				258.489,288.373 209.171,291.698 			"/>
			<polygon style="fill:none;stroke:#FFFFFF;stroke-linejoin:round;stroke-miterlimit:10;" points="201.388,191.083 
				201.388,210.198 240.703,205.549 240.703,195.807 209.696,194.917 			"/>
			<polygon style="fill:none;stroke:#FFFFFF;stroke-linejoin:round;stroke-miterlimit:10;" points="244.268,197.736 
				244.268,204.412 255.094,204.412 255.094,198.329 			"/>
			<polygon style="fill:none;stroke:#FFFFFF;stroke-linejoin:round;stroke-miterlimit:10;" points="181.657,208.665 
				196.641,205.698 196.641,214.896 			"/>
			<polygon style="fill:none;stroke:#FFFFFF;stroke-linejoin:round;stroke-miterlimit:10;" points="261.967,195.906 
				261.967,203.126 289.742,195.346 			"/>
			<polygon style="fill:none;stroke:#FFFFFF;stroke-linejoin:round;stroke-miterlimit:10;" points="262.858,205.549 
				277.594,202.038 283.232,224.984 263.352,225.676 			"/>
			<polygon style="fill:none;stroke:#FFFFFF;stroke-linejoin:round;stroke-miterlimit:10;" points="282.54,202.038 289.463,200.653 
				291.639,222.808 287.089,222.808 			"/>
			<polygon style="fill:none;stroke:#FFFFFF;stroke-linejoin:round;stroke-miterlimit:10;" points="262.858,229.138 
				284.419,228.347 285.705,240.71 263.649,240.71 			"/>
			<polygon style="fill:none;stroke:#FFFFFF;stroke-linejoin:round;stroke-miterlimit:10;" points="288.474,228.841 
				294.408,228.841 297.672,240.71 288.078,240.71 			"/>
			<polygon style="fill:none;stroke:#FFFFFF;stroke-linejoin:round;stroke-miterlimit:10;" points="265.528,245.556 
				284.518,245.556 285.705,262.963 265.924,262.963 			"/>
			<polygon style="fill:none;stroke:#FFFFFF;stroke-linejoin:round;stroke-miterlimit:10;" points="289.265,245.556 
				298.859,245.556 297.672,254.952 301.035,261.282 289.265,262.271 			"/>
			<polygon style="fill:none;stroke:#FFFFFF;stroke-linejoin:round;stroke-miterlimit:10;" points="266.22,269.392 286.496,265.436 
				286.496,279.678 267.111,281.063 			"/>
			<polygon style="fill:none;stroke:#FFFFFF;stroke-linejoin:round;stroke-miterlimit:10;" points="268.001,283.635 
				289.265,282.448 289.265,287.789 268.001,288.283 			"/>
			<polygon style="fill:none;stroke:#FFFFFF;stroke-linejoin:round;stroke-miterlimit:10;" points="291.441,265.931 
				302.518,265.436 302.518,269.392 306.771,277.404 291.441,278.887 			"/>
			<polygon style="fill:none;stroke:#FFFFFF;stroke-linejoin:round;stroke-miterlimit:10;" points="291.441,282.448 
				306.376,280.667 310.134,286.799 291.441,287.195 			"/>
			<polyline style="fill:none;stroke:#FFFFFF;stroke-width:5;stroke-miterlimit:10;" points="0,234.528 25.981,234.528 49,147.443 
				103.621,153.377 141.25,156.492 192.75,167.718 363.32,167.718 378.5,159.905 406.319,84.688 428.25,36.373 451.25,-6.329 
				468.596,-34.11 			"/>
			<polyline style="fill:none;stroke:#FFFFFF;stroke-width:5;stroke-miterlimit:10;" points="201.599,-34.11 175.327,-15.824 
				190.459,-11.102 215.383,14.416 227.252,17.5 284.167,78.167 353.333,136.168 376.333,153.833 390.445,157.383 462.167,225.676 
				500,252.22 511.455,253.914 512.667,293.574 508.339,300 510,330.96 			"/>
			<polyline style="fill:none;stroke:#FFFFFF;stroke-width:5;stroke-miterlimit:10;" points="-3.79,356.923 43.141,356.923 
				154.211,307 213.257,296.888 319.667,290.199 297.672,206.637 297.672,186.411 199.163,186.411 204.726,167.718 			"/>
			<polyline style="fill:none;stroke:#FFFFFF;stroke-width:5;stroke-miterlimit:10;" points="154.211,307 156.436,413.447 
				155.323,496.082 151.491,505.874 151.491,524.369 			"/>
		</g>
	</g>
</g>
<g id="DESIGNED_BY_FREEPIK">
	<g>
		<g id="XMLID_319_">
			<g id="XMLID_338_">
				<path id="XMLID_346_" style="fill:#F9FBFC;" d="M260.104,465.465c-0.432,0.443-0.803,0.931-1.108,1.453l-0.465-0.241
					c-0.067-0.298-0.349-0.503-0.659-0.466c-0.331,0.039-0.568,0.339-0.529,0.67s0.339,0.568,0.67,0.529
					c0.065-0.008,0.127-0.026,0.184-0.052l0.451,0.234c-0.251,0.554-0.433,1.139-0.539,1.744l0.746,0.132
					c0.23-1.306,0.85-2.507,1.792-3.473L260.104,465.465z"/>
				<path id="XMLID_345_" style="fill:#F9FBFC;" d="M265.592,463.163c-0.171,0-0.341,0.006-0.51,0.017l-0.074-0.626
					c0.188-0.149,0.296-0.389,0.266-0.645c-0.046-0.393-0.402-0.674-0.795-0.628s-0.674,0.402-0.628,0.795
					c0.03,0.254,0.189,0.461,0.405,0.564l0.073,0.624c-0.714,0.116-1.403,0.332-2.06,0.646l0.327,0.684
					c0.934-0.447,1.942-0.673,2.995-0.673c0.496,0,0.993,0.053,1.475,0.158l0.161-0.741
					C266.693,463.222,266.142,463.163,265.592,463.163z"/>
				<path id="XMLID_344_" style="fill:#F9FBFC;" d="M272.194,465.711c0.331-0.04,0.566-0.341,0.525-0.672
					c-0.04-0.331-0.341-0.566-0.672-0.526c-0.309,0.038-0.535,0.304-0.53,0.609l-0.416,0.363c-0.418-0.43-0.89-0.813-1.408-1.139
					l-0.404,0.641c1.134,0.715,2.021,1.726,2.563,2.925l0.691-0.313c-0.251-0.554-0.568-1.072-0.942-1.545l0.402-0.351
					C272.065,465.716,272.129,465.719,272.194,465.711z"/>
				<path id="XMLID_343_" style="fill:#F9FBFC;" d="M265.044,473.372c-0.386,0.023-0.775,0.035-1.157,0.035
					c-0.88,0-1.733-0.061-2.478-0.179c-0.39-0.062-0.846-0.155-1.27-0.292c1.046,1.861,3.069,3.125,5.388,3.125
					c2.855,0,5.262-1.916,5.95-4.504c-0.682,0.449-1.505,0.825-2.459,1.123C267.839,473.047,266.464,473.286,265.044,473.372z"/>
				<path id="XMLID_339_" style="fill:#F9FBFC;" d="M265.592,464.68c-3.352,0-6.08,2.666-6.08,5.943
					c0,0.426,0.046,0.849,0.137,1.261c0.674,0.483,2.706,0.89,5.348,0.731c2.879-0.173,5.297-0.957,6.672-2.159
					c-0.005-0.195-0.021-0.39-0.045-0.582C271.244,466.913,268.65,464.68,265.592,464.68z M263.432,471.194
					c-1.02,0-1.85-0.83-1.85-1.85c0-1.02,0.83-1.85,1.85-1.85c1.02,0,1.85,0.83,1.85,1.85
					C265.282,470.365,264.452,471.194,263.432,471.194z M268.17,470.286c-0.75,0-1.36-0.61-1.36-1.36s0.61-1.361,1.36-1.361
					c0.75,0,1.361,0.61,1.361,1.361S268.92,470.286,268.17,470.286z"/>
			</g>
			<path id="XMLID_336_" style="fill:#F9FBFC;" d="M281.595,466.547c-0.295-0.116-0.806-0.309-1.382-0.237
				c-0.551,0.069-0.844,0.341-0.844,1.007v0.866h2.228v1.717h-2.228v5.455h-1.932v-5.455h-1.34v-1.717h1.34v-0.888
				c0-1.68,0.896-2.783,2.568-2.783c0.642,0,1.157,0.122,1.59,0.308L281.595,466.547z"/>
			<path id="XMLID_334_" style="fill:#F9FBFC;" d="M286.298,469.879c-0.177-0.03-0.358-0.046-0.526-0.046
				c-0.896,0-1.51,0.548-1.51,1.614v3.908h-1.932v-7.172h1.873v0.785c0.451-0.673,1.14-0.977,2.021-0.977
				c0.414,0,0.848,0.128,1.094,0.337L286.298,469.879z"/>
			<path id="XMLID_331_" style="fill:#F9FBFC;" d="M293.965,471.757c0,0.222-0.015,0.489-0.037,0.651h-5.085
				c0.207,1.036,0.933,1.488,1.843,1.488c0.622,0,1.295-0.252,1.813-0.688l1.132,1.243c-0.814,0.748-1.85,1.088-3.057,1.088
				c-2.198,0-3.723-1.495-3.723-3.753c0-2.258,1.48-3.797,3.627-3.797C292.544,467.99,293.958,469.522,293.965,471.757z
				 M288.851,471.091h3.175c-0.177-0.918-0.733-1.436-1.562-1.436C289.554,469.655,289.021,470.203,288.851,471.091z"/>
			<path id="XMLID_328_" style="fill:#F9FBFC;" d="M301.618,471.757c0,0.222-0.015,0.489-0.037,0.651h-5.085
				c0.207,1.036,0.932,1.488,1.843,1.488c0.622,0,1.295-0.252,1.813-0.688l1.132,1.243c-0.814,0.748-1.85,1.088-3.057,1.088
				c-2.198,0-3.723-1.495-3.723-3.753c0-2.258,1.48-3.797,3.627-3.797C300.197,467.99,301.611,469.522,301.618,471.757z
				 M296.504,471.091h3.175c-0.178-0.918-0.733-1.436-1.562-1.436C297.207,469.655,296.674,470.203,296.504,471.091z"/>
			<path id="XMLID_325_" style="fill:#F9FBFC;" d="M309.964,471.764c0,2.154-1.495,3.775-3.471,3.775
				c-0.962,0-1.643-0.378-2.109-0.933v3.708h-1.924v-10.133h1.887v0.792c0.466-0.585,1.155-0.984,2.139-0.984
				C308.469,467.99,309.964,469.61,309.964,471.764z M304.287,471.764c0,1.132,0.747,1.976,1.843,1.976
				c1.14,0,1.85-0.881,1.85-1.976c0-1.095-0.71-1.976-1.85-1.976C305.035,469.788,304.287,470.632,304.287,471.764z"/>
			<path id="XMLID_322_" style="fill:#F9FBFC;" d="M313.068,465.836c0,0.696-0.54,1.229-1.236,1.229
				c-0.696,0-1.229-0.533-1.229-1.229c0-0.696,0.533-1.243,1.229-1.243C312.527,464.592,313.068,465.14,313.068,465.836z
				 M312.809,475.354h-1.932v-7.172h1.932V475.354z"/>
			<path id="XMLID_320_" style="fill:#F9FBFC;" d="M316.032,470.736l2.702-2.554h2.368l-3.479,3.375l3.501,3.797h-2.376
				l-2.716-2.901v2.901H314.1v-10.658h1.932V470.736z"/>
		</g>
		<g>
			<path style="fill:#F9FBFC;" d="M184.412,475.289v-1.055c-0.527,0.718-1.391,1.23-2.388,1.23c-1.846,0-3.149-1.406-3.149-3.706
				c0-2.256,1.289-3.721,3.149-3.721c0.952,0,1.816,0.469,2.388,1.245v-3.765h1.099v9.77H184.412z M184.412,473.37v-3.208
				c-0.395-0.615-1.245-1.143-2.124-1.143c-1.421,0-2.27,1.172-2.27,2.739c0,1.567,0.85,2.724,2.27,2.724
				C183.168,474.483,184.017,473.986,184.412,473.37z"/>
			<path style="fill:#F9FBFC;" d="M186.932,471.744c0-2.051,1.465-3.706,3.486-3.706c2.139,0,3.398,1.67,3.398,3.794v0.279h-5.727
				c0.088,1.333,1.025,2.446,2.549,2.446c0.805,0,1.626-0.322,2.182-0.894l0.527,0.718c-0.703,0.703-1.655,1.084-2.812,1.084
				C188.44,475.465,186.932,473.956,186.932,471.744z M190.403,468.947c-1.509,0-2.256,1.274-2.314,2.358h4.643
				C192.718,470.25,192.015,468.947,190.403,468.947z"/>
			<path style="fill:#F9FBFC;" d="M194.607,474.351l0.571-0.791c0.469,0.542,1.362,1.011,2.329,1.011c1.084,0,1.67-0.513,1.67-1.216
				c0-1.714-4.38-0.659-4.38-3.281c0-1.098,0.952-2.036,2.636-2.036c1.201,0,2.051,0.454,2.622,1.026l-0.513,0.762
				c-0.424-0.513-1.201-0.894-2.109-0.894c-0.967,0-1.567,0.483-1.567,1.113c0,1.552,4.38,0.527,4.38,3.281
				c0,1.187-0.952,2.138-2.783,2.138C196.306,475.465,195.325,475.113,194.607,474.351z"/>
			<path style="fill:#F9FBFC;" d="M201.477,466.471c0-0.41,0.337-0.747,0.732-0.747c0.41,0,0.747,0.337,0.747,0.747
				c0,0.41-0.337,0.732-0.747,0.732C201.814,467.203,201.477,466.881,201.477,466.471z M201.667,475.289v-7.075h1.099v7.075H201.667
				z"/>
			<path style="fill:#F9FBFC;" d="M204.582,477.105l0.556-0.82c0.586,0.703,1.289,0.967,2.3,0.967c1.172,0,2.27-0.571,2.27-2.124
				v-1.011c-0.513,0.718-1.377,1.26-2.373,1.26c-1.845,0-3.149-1.377-3.149-3.662c0-2.27,1.289-3.677,3.149-3.677
				c0.952,0,1.802,0.469,2.373,1.245v-1.069h1.098v6.87c0,2.344-1.641,3.076-3.369,3.076
				C206.237,478.16,205.417,477.926,204.582,477.105z M209.709,473.253v-3.091c-0.381-0.615-1.23-1.143-2.109-1.143
				c-1.421,0-2.27,1.128-2.27,2.695c0,1.553,0.849,2.695,2.27,2.695C208.478,474.41,209.328,473.868,209.709,473.253z"/>
			<path style="fill:#F9FBFC;" d="M217.413,475.289v-4.629c0-1.245-0.63-1.641-1.582-1.641c-0.865,0-1.685,0.527-2.095,1.099v5.17
				h-1.099v-7.075h1.099v1.025c0.498-0.586,1.465-1.201,2.519-1.201c1.48,0,2.256,0.747,2.256,2.285v4.966H217.413z"/>
			<path style="fill:#F9FBFC;" d="M219.932,471.744c0-2.051,1.465-3.706,3.486-3.706c2.139,0,3.398,1.67,3.398,3.794v0.279h-5.727
				c0.088,1.333,1.025,2.446,2.549,2.446c0.806,0,1.626-0.322,2.183-0.894l0.527,0.718c-0.703,0.703-1.655,1.084-2.812,1.084
				C221.441,475.465,219.932,473.956,219.932,471.744z M223.404,468.947c-1.509,0-2.256,1.274-2.314,2.358h4.643
				C225.718,470.25,225.015,468.947,223.404,468.947z"/>
			<path style="fill:#F9FBFC;" d="M233.35,475.289v-1.055c-0.527,0.718-1.392,1.23-2.388,1.23c-1.846,0-3.149-1.406-3.149-3.706
				c0-2.256,1.289-3.721,3.149-3.721c0.952,0,1.817,0.469,2.388,1.245v-3.765h1.098v9.77H233.35z M233.35,473.37v-3.208
				c-0.396-0.615-1.245-1.143-2.124-1.143c-1.421,0-2.27,1.172-2.27,2.739c0,1.567,0.849,2.724,2.27,2.724
				C232.105,474.483,232.954,473.986,233.35,473.37z"/>
			<path style="fill:#F9FBFC;" d="M239.692,475.289v-9.77h1.098v3.765c0.572-0.776,1.421-1.245,2.388-1.245
				c1.845,0,3.149,1.465,3.149,3.721c0,2.299-1.304,3.706-3.149,3.706c-0.996,0-1.86-0.513-2.388-1.23v1.055H239.692z
				 M242.9,474.483c1.436,0,2.285-1.157,2.285-2.724c0-1.568-0.85-2.739-2.285-2.739c-0.864,0-1.728,0.527-2.109,1.143v3.208
				C241.171,473.986,242.036,474.483,242.9,474.483z"/>
			<path style="fill:#F9FBFC;" d="M247.528,477.061c0.161,0.073,0.425,0.117,0.601,0.117c0.483,0,0.805-0.161,1.055-0.747
				l0.469-1.069l-2.959-7.148h1.187l2.358,5.8l2.344-5.8h1.201l-3.545,8.51c-0.425,1.025-1.143,1.421-2.08,1.435
				c-0.234,0-0.601-0.044-0.805-0.103L247.528,477.061z"/>
		</g>
	</g>
</g>
</svg>
