<?xml version="1.0" encoding="UTF-8" standalone="no"?><!DOCTYPE svg PUBLIC "-//W3C//DTD SVG 1.1//EN" "http://www.w3.org/Graphics/SVG/1.1/DTD/svg11.dtd"><svg width="100%" height="100%" viewBox="0 0 800 600" version="1.1" xmlns="http://www.w3.org/2000/svg" xmlns:xlink="http://www.w3.org/1999/xlink" xml:space="preserve" xmlns:serif="http://www.serif.com/" style="fill-rule:evenodd;clip-rule:evenodd;stroke-linecap:round;stroke-linejoin:round;stroke-miterlimit:1.5;"><path d="M115.396,420.733c2.826,3.733 34.205,-9.531 39.668,-10.965c20.502,-5.382 48.374,-6.956 68.473,-2.526c39.896,8.795 76.782,44.383 120.424,34.179c17.525,-4.097 33.057,-15.995 48.018,-25.209c25.495,-15.702 59.411,-33.182 89.862,-34.239c32.9,-1.142 34.749,17.357 65.871,26.827c31.271,9.515 68.936,-8.528 94.354,-25.515c5.211,-3.482 13.882,-3.753 17.892,-7.993" style="fill:none;stroke:#3458d3;stroke-width:12px;"/><path d="M279.781,427.991c-9.691,-0 -34.501,-45.308 -39.729,-56.007c-0.684,-1.402 -10.515,-16.511 -7.059,-17.728c13.078,-4.606 51.162,-0.069 67.05,-0.069c52.87,-0 104.869,0.836 157.837,1.656c20.545,0.318 49.486,-4.788 69.592,1.097c0.37,0.109 0.125,3.551 0.125,4.022c-0,5.872 -9.584,22.727 -16.004,24.762" style="fill:none;stroke:#3458d3;stroke-width:12px;"/><path d="M389.69,131.549l0.004,-0.567c0,0.188 -0.001,0.377 -0.004,0.567l-0.01,1.322c1.66,4.438 9.669,14.989 10.184,15.71c10.362,14.491 24.7,25.696 36.536,38.898c9.363,10.443 18.523,21.375 28.879,30.884c5.67,5.205 12.937,8.953 17.978,14.803c5.972,6.931 7.232,15.777 11.533,23.432c7.908,14.075 18.503,27.132 20.735,43.445c0.749,5.471 -24.876,3.803 -29.3,3.803c-8.22,-0 -16.635,0.108 -24.766,1.433c-24.197,3.942 -43.942,11.219 -68.955,11.219c-1.954,-0 -3.311,0.565 -4.24,1.032l-0.303,39.552c-0,-13.376 -0.593,-26.381 -1.47,-39.39c-0.057,-0.259 -0,-3.575 -0,-4.123c-0.583,-8.479 -1.365,-14.032 -2.097,-22.624c-1.467,-17.23 3.48,-34.836 1.158,-52.067c-2.865,-21.252 -7.041,-40.29 -5.872,-62.747c0.758,-14.569 9.288,-28.892 9.971,-43.338c-0.35,-0.965 -0.385,-1.626 0.043,-1.811l-0.023,1.33c0.009,-0.255 0.015,-0.509 0.019,-0.763Z" style="fill:none;stroke:#3458d3;stroke-width:12px;"/><path d="M371.862,321.079c3.265,0 6.251,-0.621 9.143,-2.238c0.825,-0.461 4.165,-2.536 5.231,-1.887" style="fill:none;stroke:#3458d3;stroke-width:12px;"/></svg>